<svg id="Layer_1" xmlns="http://www.w3.org/2000/svg" viewBox="0 0 563.97 529.21">
  <defs>
    <style>
      .cls-1{fill:#fff;}
      .cls-2{fill:#2b254c;}
    </style>
  </defs>
  <rect class="cls-2" x="-3.53" y="-4.22" width="571.04" height="537.65"/>
  <rect class="cls-1" x="191.99" y="443.95" width="180" height="15.72"/>
  <rect class="cls-1" x="141.61" y="214.25" width="280.76" height="171.91" transform="translate(-19.25 581.08) rotate(-89.79)"/>
  <path class="cls-1" d="m286.96,69.53h-9.95c-40.46,0-73.25,33.23-73.25,74.22v11.58h156.46v-11.58c0-40.99-32.8-74.22-73.25-74.22"/>
  <path class="cls-1" d="m285.94,87.44h-7.91c-16.51,0-31.42,6.97-42.01,18.16-14.47,15.28-3.19,40.8,17.71,40.8h56.52c20.9,0,32.17-25.52,17.71-40.8-10.59-11.19-25.5-18.16-42.01-18.16"/>
  <path class="cls-2" d="m285.74,88.95h-7.5c-15.67,0-29.81,6.61-39.86,17.23-13.72,14.5-3.03,38.71,16.8,38.71h53.62c19.83,0,30.53-24.21,16.8-38.71-10.05-10.62-24.19-17.23-39.86-17.23"/>
</svg>
