<?xml version="1.0" encoding="UTF-8"?><svg id="Layer_1" xmlns="http://www.w3.org/2000/svg" viewBox="0 0 563.97 529.21"><defs><style>.cls-1{fill:#fff;}.cls-2{fill:#2b254c;}</style></defs><rect class="cls-2" x="-3.53" y="-4.22" width="571.04" height="537.65"/><path class="cls-1" d="m114.4,285.02v109.96h-24.57c-6.02,0-10.9,4.88-10.9,10.9v28.11h104.63v-27.68c0-6.26-5.07-11.33-11.33-11.33h-24.13v-109.96h267.79v109.96h-24.05c-6.31,0-11.42,5.11-11.42,11.42v27.59h104.63v-28.54c0-5.78-4.69-10.47-10.47-10.47h-26.77v-109.96h37.24v-141.87H78.93v141.87h35.47Zm54.33-124.14l-72.07,73.13v-63.85l8.22-9.28h63.85Zm227.14,106.41l71.45-70.16v63.85l-7.59,6.31h-63.85Zm-99.43,0l106.73-106.41h64.14v.67l-107.03,105.74h-63.85Zm-99.43,0l106.73-106.41h63.85l-106.74,106.41h-63.85Zm-35.58,0h-63.85l106.74-106.41h63.85l-106.74,106.41Z"/></svg>