<?xml version="1.0" encoding="UTF-8"?><svg id="Layer_1" xmlns="http://www.w3.org/2000/svg" viewBox="0 0 563.97 529.21"><defs><style>.cls-1,.cls-2{fill:#2b254c;}.cls-2,.cls-3{fill-rule:evenodd;}.cls-3{fill:#fff;}</style></defs><rect class="cls-1" x="-3.53" y="-4.22" width="571.04" height="537.65"/><path class="cls-3" d="m184.61,99.84l47.82,260.14c0,.18,0,.36.13.54l12.63,68.85h39.76l-11.69-65.98c-.4-1.97,0-3.94.94-5.38s2.28-2.51,3.76-2.51h104.9c2.15,0,4.16,1.97,4.7,4.84l12.22,69.03h39.62l-60.71-329.53h-194.09Zm88.65,229.84c-9.13,0-16.52-9.68-17.6-22.95l-1.88-22.77v-.54l-6.31-74.76v-.54l-1.61-18.65c-4.97-1.61-8.6-7.53-8.6-14.52,0-8.25,5.1-15.06,11.28-15.06h5.51l1.75-20.26c1.07-13.27,8.6-22.95,17.6-22.95h58.83c9.13,0,16.52,9.68,17.6,22.95l1.75,20.26h5.51c6.18,0,11.28,6.81,11.28,15.06,0,7.17-3.76,13.09-8.6,14.52l-1.48,18.47c0,.36,0,.72-.13.9l-6.18,74.4c0,.36,0,.54-.13.9l-1.88,22.59c-1.07,13.27-8.46,22.95-17.6,22.95h-59.1Z"/><path class="cls-3" d="m178.7,120.82l-54.13,308.37h39.76l12.22-69.03c.54-2.87,2.42-4.84,4.7-4.84h40.56l-43.12-234.51Z"/><path class="cls-3" d="m263.72,289.35l1.34,15.96c.4,5.56,3.22,11.65,8.19,11.65h58.97c4.97,0,7.66-5.92,8.19-11.65l1.34-15.96h-78.04Z"/><path class="cls-3" d="m294.75,129.6v6.45c0,.72.4,1.26.94,1.26h14.24c.54,0,.94-.54.94-1.26v-6.45h-16.12Z"/><path class="cls-3" d="m265.06,141.25l-1.61,18.83h78.44l-1.61-18.83c-.4-5.56-3.22-11.65-8.19-11.65h-11.82v6.45c0,7.71-4.7,13.98-10.48,13.98h-14.24c-5.78,0-10.48-6.28-10.48-13.98v-6.45h-11.82c-4.97,0-7.66,6.1-8.19,11.65Z"/><path class="cls-3" d="m347.4,172.81h-98.86c-.94,0-1.75,1.08-1.75,2.33s.81,2.33,1.75,2.33h108.66c.94,0,1.75-1.08,1.75-2.33s-.81-2.33-1.75-2.33h-9.81Z"/><polygon class="cls-3" points="350.09 190.02 255.53 190.02 256.47 201.32 349.15 201.32 350.09 190.02"/><path class="cls-3" d="m302.81,236.81c-3.49,0-6.31,3.77-6.31,8.43s2.82,8.43,6.31,8.43,6.31-3.77,6.31-8.43-2.82-8.43-6.31-8.43Z"/><path class="cls-3" d="m302.81,224.09c8.73,0,15.85,9.5,15.85,21.16s-7.12,21.16-15.85,21.16-15.85-9.5-15.85-21.16,6.98-21.16,15.85-21.16h0Zm45.27-10.04h-90.53l5.24,62.57h80.19l5.1-62.57Z"/><polygon class="cls-3" points="202.55 112.9 368.89 112.9 392.23 337.52 249.24 342.71 202.55 112.9"/><polygon class="cls-2" points="207.67 116.96 362.25 116.29 401.92 332.11 247.84 332.11 207.67 116.96"/></svg>