<?xml version="1.0" encoding="UTF-8"?><svg id="Layer_1" xmlns="http://www.w3.org/2000/svg" viewBox="0 0 563.97 529.21"><defs><style>.cls-1{fill:#fff;}.cls-2{fill:#2b254c;}</style></defs><rect class="cls-2" x="-3.53" y="-4.22" width="571.04" height="537.65"/><path class="cls-1" d="m371.66,373.17h-179.34c-5.57,0-10.1-4.53-10.1-10.1V90.08c0-5.57,4.53-10.1,10.1-10.1h179.34c5.57,0,10.1,4.53,10.1,10.1v272.98c0,5.57-4.53,10.1-10.1,10.1Zm-172.85-16.6h166.35V96.58h-166.35v259.99Z"/><rect class="cls-1" x="266.07" y="364.87" width="31.84" height="87.96"/><polygon class="cls-1" points="313.24 449.5 250.73 449.5 232.89 469.14 331.08 469.14 313.24 449.5"/><polygon class="cls-1" points="297.39 60.07 266.58 60.07 257.78 69.75 306.19 69.75 297.39 60.07"/><rect class="cls-1" x="279.08" y="65.04" width="5.81" height="31.25"/><polygon class="cls-1" points="224.1 60.07 193.28 60.07 184.49 69.75 232.89 69.75 224.1 60.07"/><rect class="cls-1" x="205.79" y="65.04" width="5.81" height="31.25"/><polygon class="cls-1" points="370.69 60.07 339.88 60.07 331.08 69.75 379.48 69.75 370.69 60.07"/><rect class="cls-1" x="352.38" y="65.04" width="5.81" height="31.25"/></svg>