<?xml version="1.0" encoding="UTF-8"?><svg id="Layer_1" xmlns="http://www.w3.org/2000/svg" viewBox="0 0 563.97 529.21"><defs><style>.cls-1{fill:#fff;}.cls-2{fill:#2b254c;}</style></defs><rect class="cls-2" x="-3.53" y="-4.22" width="571.04" height="537.65"/><path class="cls-1" d="m69.88,332.64h76.06c4.44,17.41,20.17,30.3,38.96,30.3,18.79,0,34.52-12.89,38.96-30.3h149.01c4.44,17.41,20.17,30.3,38.96,30.3,18.79,0,34.53-12.89,38.96-30.3h46.11c5.18,0,7.49-5.56,7.73-13.92l-1.53-16.84c-4.74-26.53-19.45-60.59-32.25-60.59h-20.55c-30.7-70.22-42.47-75.02-55.94-75.02-8.87,0-73.77,0-122.63,0h-24.76c-14.02,0-24.56,0-28.63,0-18.01,0-67.59,75.02-67.59,75.02h-37.88c-29.73,0-73.94,91.35-42.99,91.35Zm318.77-9.96c0-12.81,10.39-23.19,23.19-23.19s23.19,10.38,23.19,23.19c0,12.8-10.38,23.18-23.19,23.18-12.8,0-23.19-10.38-23.19-23.18Zm-77.81-81.4v-61.63c34.73,0,69.1,0,75.04,0,12.01,0,23.91,3.93,47.77,62.13l-122.81-.5Zm-136.18-.55s45.96-61.08,58.48-61.08c5.6,0,34.3,0,65.41,0v61.58s-123.89-.5-123.89-.5Zm-12.95,81.95c0-12.81,10.38-23.19,23.19-23.19,12.8,0,23.19,10.38,23.19,23.19,0,12.8-10.38,23.18-23.19,23.18-12.8,0-23.19-10.38-23.19-23.18Z"/></svg>