<?xml version="1.0" encoding="UTF-8"?><svg id="Layer_1" xmlns="http://www.w3.org/2000/svg" viewBox="0 0 563.97 529.21"><defs><style>.cls-1{fill:#fff;}.cls-2{fill:#2b254c;}</style></defs><rect class="cls-2" x="-3.53" y="-4.22" width="571.04" height="537.65"/><path class="cls-1" d="m162.69,346.21v-13.91h-13.26v13.91l-30.1,22.16c-2.89,2.06-3.57,6.18-1.36,9.27,2.04,2.92,6.29,3.61,9.18,1.37l28.91-21.13,28.74,21.13c3.06,2.23,7.14,1.55,9.35-1.37,2.04-3.09,1.36-7.21-1.53-9.27l-29.93-22.16Z"/><path class="cls-1" d="m414.71,346.21v-13.91h-13.26v13.91l-29.93,22.16c-3.06,2.06-3.74,6.18-1.53,9.27,2.21,2.92,6.29,3.61,9.18,1.37l28.91-21.13,28.91,21.13c2.89,2.23,6.97,1.55,9.18-1.37,2.04-3.09,1.53-7.21-1.53-9.27l-29.93-22.16Z"/><path class="cls-1" d="m445.66,161.23c-7.65-7.56-18.03-12.37-29.59-12.37H148.07c-11.56,0-22.11,4.81-29.59,12.37-7.65,7.73-12.41,18.38-12.41,29.89v93.61c0,11.68,4.76,22.33,12.41,29.89,7.48,7.73,18.03,12.54,29.59,12.54h268c11.56,0,21.94-4.81,29.59-12.54,7.48-7.56,12.24-18.21,12.24-29.89v-93.61c0-11.51-4.76-22.16-12.24-29.89Zm-5.44,123.49c0,6.7-2.72,12.88-6.97,17.35-4.42,4.47-10.54,7.21-17.18,7.21H148.07c-6.63,0-12.75-2.75-17.18-7.21-4.42-4.47-7.14-10.65-7.14-17.35v-93.61c0-6.7,2.72-12.71,7.14-17.18,4.42-4.47,10.54-7.21,17.18-7.21h268c6.63,0,12.75,2.75,17.18,7.21,4.25,4.47,6.97,10.48,6.97,17.18v93.61Z"/><rect class="cls-1" x="395.33" y="173.08" width="13.26" height="129.68"/><rect class="cls-1" x="155.55" y="173.08" width="13.26" height="129.68"/><path class="cls-1" d="m203.51,302.76h13.26v-129.68h-13.26v129.68Z"/><path class="cls-1" d="m299.42,302.76h13.26v-129.68h-13.26v129.68Z"/><path class="cls-1" d="m251.46,302.76h13.26v-129.68h-13.26v129.68Z"/><path class="cls-1" d="m347.37,302.76h13.26v-129.68h-13.26v129.68Z"/></svg>