<?xml version="1.0" encoding="UTF-8"?><svg id="Layer_1" xmlns="http://www.w3.org/2000/svg" viewBox="0 0 563.97 529.21"><defs><style>.cls-1{fill:#fff;}.cls-2{fill:#2b254c;}</style></defs><rect class="cls-2" x="-3.53" y="-4.22" width="571.04" height="537.65"/><path class="cls-1" d="m307.5,433.5c-.26.05-.52.1-.83.1-.72,0-1.4-.21-1.97-.52h-127.26c-.52,0-.98.05-1.45.1-.57.26-1.14.41-1.81.41h-.05c-4.45,1.4-7.71,5.59-7.71,10.51v9.68h149.05v-9.68c0-5.02-3.36-9.26-7.97-10.61"/><path class="cls-1" d="m350.66,122.58v-20.35c0-2.93,2.37-5.31,5.31-5.31s5.31,2.37,5.31,5.31v20.35c0,2.93-2.37,5.31-5.31,5.31s-5.31-2.38-5.31-5.31m29.64,0v-20.35c0-2.93,2.37-5.31,5.31-5.31s5.31,2.37,5.31,5.31v20.35c0,2.93-2.37,5.31-5.31,5.31s-5.31-2.38-5.31-5.31"/><path class="cls-1" d="m341.15,230.97c0-6.81-5.59-12.39-12.39-12.39h-30.96c-2.93,0-5.31-2.37-5.31-5.31s2.37-5.31,5.31-5.31h30.96c12.66,0,23,10.34,23,23v44.02c0,5.98,7.33,9.21,11.69,4.84,1.29-1.29,2.02-3.01,2.02-4.84v-102.6c0-2.93,2.37-5.31,5.31-5.31s5.31,2.37,5.31,5.31v102.6c0,15.41-18.78,23.39-29.82,12.35-3.28-3.28-5.13-7.7-5.13-12.35v-44.02h0Z"/><path class="cls-1" d="m344.02,149.17v-26.58c0-1.95,1.58-3.54,3.54-3.54h46.45c1.95,0,3.54,1.58,3.54,3.54v26.58c0,14.73-12.04,26.76-26.76,26.76s-26.77-12.04-26.77-26.76"/><path class="cls-1" d="m294.76,161.58c0,2.96-1.86,5.39-4.14,5.39h-99.37c-2.28,0-4.14-2.42-4.14-5.39v-53.85c0-2.96,1.86-5.38,4.14-5.38h99.37c2.28,0,4.14,2.42,4.14,5.38v53.85Zm-66.92,144.72l9.68-29.35-16.1-8.35,32.19-37.7-6.42,29.35,12.89,12.59-32.24,33.46Zm74.68-218.23c0-7.07-4.14-12.65-9.37-12.65h-104.8c-5.43,0-10.04,5.79-10.04,12.65v345h124.21V88.08Z"/></svg>