<?xml version="1.0" encoding="UTF-8"?><svg id="Layer_1" xmlns="http://www.w3.org/2000/svg" viewBox="0 0 563.97 529.21"><defs><style>.cls-1{fill:#fffffe;}.cls-2{fill:#fff;}.cls-3{fill:#2b254c;}.cls-4{fill:none;stroke:#fff;stroke-miterlimit:10;stroke-width:8px;}</style></defs><rect class="cls-3" x="-3.53" y="-4.22" width="571.04" height="537.65"/><rect class="cls-4" x="48.22" y="337.85" width="476.38" height="138.61"/><path class="cls-1" d="m389.84,133.18s-.13,0,0,0l1.6,14.5c0,.13.13.13.13.13,13.17-1.46,26.47-2.93,39.64-4.39.13,0,.13-.13.13-.13l-1.6-14.5c0-.13-.13-.13-.13-.13-13.3,1.6-26.47,2.93-39.77,4.52h0Z"/><polygon class="cls-1" points="415.24 249.3 429.88 247.57 419.63 153.53 404.74 155.13 415.24 249.3"/><path class="cls-1" d="m403.94,263.39c.27,2.39,1.86,3.99,3.06,3.86l34.72-3.86c1.73-.13,2.26-3.06,2.13-4.39s-1.33-3.99-3.06-3.86c-11.57,1.33-23.14,2.53-34.72,3.86-1.06,0-2.26,2.13-2.13,4.39Z"/><path class="cls-1" d="m418.04,274.7c5.19,46.82,10.37,93.77,15.56,140.59.4,3.99,4.12,7.05,8.11,6.52s6.92-4.12,6.52-8.11c-5.19-46.82-10.37-93.77-15.56-140.59l-14.63,1.6Z"/><path class="cls-1" d="m324.93,95.94c7.32-.8,12.5-7.32,11.7-14.63-.8-7.18-7.32-12.5-14.63-11.7-7.32.8-12.5,7.32-11.7,14.63,1.06,7.05,7.58,12.37,14.63,11.7Z"/><path class="cls-1" d="m344.88,87.69l47.48-5.32c2.39-.27,4.52,1.46,4.79,3.86l4.12,36.71,14.63-1.6-5.32-48.41c-.4-4.12-4.12-7.05-8.11-6.52l-59.19,6.52c1.06,2.13,1.86,4.66,2.13,7.18.4,2.66,0,5.19-.53,7.58Z"/><path class="cls-1" d="m454.35,390.42l2.39,22.61c1.06,8.78-5.45,16.76-14.23,17.69-.67.13-1.2.13-1.86.13-8.11,0-15.03-6.12-15.96-14.36l-2.53-22.74c-7.58,5.85-11.57,14.5-11.57,24.07,0,16.76,13.7,30.46,30.46,30.46h0c16.76,0,30.46-13.7,30.46-30.46.13-11.7-6.52-22.61-17.16-27.4Z"/><path class="cls-1" d="m421.23,383.9l-1.86-16.76h0c-20.35,8.78-33.25,27.93-33.39,50.14.93,3.59,4.12,6.12,7.98,6.12s7.05-2.66,7.98-6.25c.13-14.1,7.32-26.2,19.29-33.25Z"/><path class="cls-1" d="m480.02,378.45c-8.11-7.98-17.82-13.17-28.46-15.03l1.86,17.16h0c5.99,1.86,11.17,5.19,15.43,9.31,3.19,1.86,7.32,1.33,9.84-1.33,2.79-2.79,3.06-6.78,1.33-10.11Z"/><path class="cls-1" d="m159.6,417.68c0-8.91,7.18-16.09,16.09-16.09h25.94c-5.45-8.78-15.3-14.5-25.94-14.5-16.76,0-30.46,13.7-30.46,30.46s13.7,30.46,30.46,30.46c10.64,0,20.48-5.59,25.94-14.5h-25.94c-9.04.27-16.09-6.92-16.09-15.83Z"/><path class="cls-1" d="m175.56,378.58c15.56,0,29.53,9.18,35.78,23.14h17.03c-7.05-22.88-28.33-39.1-52.8-39.1-30.19,0-54.8,24.47-55.07,54.67.93,3.59,4.12,6.12,7.98,6.12s7.05-2.66,7.98-6.25c.13-21.28,17.69-38.57,39.1-38.57Z"/><path class="cls-1" d="m412.19,300.64l-84.46,108c-.8,1.06-2.13,1.6-3.46,1.6h-148.7c-4.12,0-7.32,3.33-7.32,7.32s3.33,7.32,7.32,7.32h153.62c1.86,0,3.72-.67,5.05-2.13l80.2-101.75-2.26-20.35Z"/><polygon class="cls-2" points="291.32 303.74 298.43 282.18 286.6 276.05 310.25 248.36 305.53 269.92 315 279.17 291.32 303.74"/></svg>