<?xml version="1.0" encoding="UTF-8"?>
<svg id="Layer_1" xmlns="http://www.w3.org/2000/svg" viewBox="0 0 563.97 529.21">
<defs>
<style>.cls-1{fill:#fff;}.cls-2{fill:#2b254c;}</style>
</defs>
<rect class="cls-2" x="-3.53" y="-4.22" width="571.04" height="537.65"/>
<path class="cls-1" d="m408.08,74.89c-6.58-3.63-13.33-5.46-20.05-5.46-11.59,0-19.06,5.5-19.38,5.73l-1.43,1.08v1.87c-34.85.86-63.86,13.05-85.23,26.26-21.37-13.21-50.37-25.4-85.23-26.26v-1.87l-1.43-1.08c-.31-.23-7.78-5.73-19.37-5.73-6.73,0-13.47,1.84-20.05,5.46l-1.86,1.02v13.23h42.72v-3.88c31.74.82,58.43,11.47,78.56,23.41-21.77,14.69-34,29.2-34.24,29.5l-3.26,3.95,4.83,1.71c28.78,10.21,31.25,46.58,31.31,57.84h-5.51v258.12h27.35V201.66h-5.77c.04-11.25,2.47-47.61,31.31-57.84l4.83-1.71-3.26-3.95c-.24-.29-12.48-14.82-34.26-29.51,20.12-11.93,46.8-22.57,78.58-23.39v3.88h42.72v-13.23l-1.86-1.02Zm-94.02,64.21c-28.89,13.87-31.26,50.54-31.23,62.57h-1.68c.03-12.03-2.33-48.7-31.23-62.57,5.14-5.38,16.14-15.94,32.05-26.3,15.92,10.36,26.94,20.92,32.09,26.3Z"/>
</svg>