<?xml version="1.0" encoding="UTF-8"?><svg id="Layer_1" xmlns="http://www.w3.org/2000/svg" viewBox="0 0 563.97 529.21"><defs><style>.cls-1{fill:#fff;}.cls-2{fill:#2b254c;}</style></defs><rect class="cls-2" x="-3.53" y="-4.22" width="571.04" height="537.65"/><rect class="cls-1" x="133.4" y="69.97" width="297.18" height="389.27"/><path class="cls-2" d="m161.07,92.31c-2.94,0-5.33,2.39-5.33,5.33v333.92c0,2.94,2.39,5.33,5.33,5.33h241.83c2.94,0,5.33-2.39,5.33-5.33V97.64c0-2.94-2.39-5.33-5.33-5.33h-241.83Zm241.83,346.71h-241.83c-4.11,0-7.46-3.34-7.46-7.45V97.64c0-4.11,3.34-7.46,7.46-7.46h241.83c4.11,0,7.46,3.35,7.46,7.46v333.92c0,4.11-3.35,7.45-7.46,7.45"/><path class="cls-2" d="m319.13,307.25h-74.29c-9.61,0-15.51-10.51-10.52-18.72l36.93-60.66c4.78-7.86,16.18-7.89,21-.06l37.37,60.66c5.05,8.21-.85,18.77-10.48,18.77"/><path class="cls-1" d="m281.76,228.61c-2.02,0-3.78.99-4.84,2.72l-36.93,60.66c-1.08,1.77-1.12,3.91-.1,5.72,1.02,1.81,2.86,2.89,4.94,2.89h74.29c2.08,0,3.93-1.08,4.94-2.9,1.02-1.82.97-3.96-.12-5.73l-37.37-60.66c-1.05-1.71-2.81-2.69-4.82-2.69m37.37,74.65h-74.29c-3.05,0-5.76-1.59-7.26-4.24-1.49-2.66-1.44-5.8.15-8.41l36.92-60.66c1.55-2.54,4.14-3.99,7.11-3.99s5.54,1.44,7.09,3.96l37.37,60.66c1.6,2.61,1.67,5.75.18,8.43-1.49,2.67-4.21,4.26-7.27,4.26"/><polygon class="cls-1" points="291.29 261.35 276.38 264.45 283.88 242.3 277.42 241.92 269.99 269.78 285.75 266.51 282.29 285.37 278.43 284.79 281.89 295.42 288.32 286.27 284.53 285.7 291.29 261.35"/><circle class="cls-2" cx="179.64" cy="264.6" r="7.99"/></svg>