<?xml version="1.0" encoding="UTF-8"?><svg id="Layer_1" xmlns="http://www.w3.org/2000/svg" viewBox="0 0 563.97 529.21"><defs><style>.cls-1{fill:#fff;}.cls-2{fill:#2b254c;}</style></defs><rect class="cls-2" x="-3.53" y="-4.22" width="571.04" height="537.65"/><g id="B264_Diner_Dinner_Furniture_Table"><path class="cls-1" d="m166.81,331.94h-101.45v-113.9c0-2.87-2.87-5.74-5.74-5.74s-5.75,2.87-5.75,5.74v202.92c0,2.87,2.87,5.74,5.75,5.74s5.74-2.87,5.74-5.74v-77.53h95.71v77.53c0,2.87,2.87,5.74,5.74,5.74s5.75-2.87,5.75-5.74v-84.23c0-2.87-2.87-4.79-5.75-4.79Z"/><path class="cls-1" d="m514.26,212.29c-2.88,0-5.75,2.87-5.75,5.74v113.9h-102.42c-2.87,0-5.74,2.87-5.74,5.74v83.27c0,2.87,2.87,5.74,5.74,5.74s5.75-2.87,5.75-5.74v-77.53h95.71v77.53c0,2.87,2.87,5.74,5.74,5.74s5.75-2.87,5.75-5.74v-202.92c.95-3.83-1.92-5.74-4.79-5.74Z"/><rect class="cls-1" x="179.91" y="263.15" width="212.44" height="15.84" rx="5.39" ry="5.39"/><rect class="cls-1" x="279.67" y="269.28" width="14.12" height="163.33"/></g></svg>