<?xml version="1.0" encoding="UTF-8"?><svg id="Layer_1" xmlns="http://www.w3.org/2000/svg" viewBox="0 0 563.97 529.21"><defs><style>.cls-1{fill:#fff;}.cls-2{fill:#2b254c;}.cls-3{fill-rule:evenodd;}.cls-3,.cls-4{fill:none;stroke:#2b254c;stroke-linecap:round;stroke-miterlimit:10;stroke-width:5px;}</style></defs><rect class="cls-2" x="-3.53" y="-4.22" width="571.04" height="537.65"/><path class="cls-1" d="m441.46,388.33c-40.78-20.39-50.15-98.19-52.28-130.69-1.03-15.71-10-29.48-23.99-36.86l-40.66-21.44c18.2-33.12,64.38-20.1,66.41-19.51,2.09.61,4.34-.07,5.74-1.74,1.39-1.67,1.67-4.01.7-5.95-10.76-21.52-24.49-34.07-40.8-37.32-14.02-2.78-26.64,2.04-34.68,6.52v-22.84c0-1.99-1.08-3.83-2.82-4.79-1.74-.96-3.87-.9-5.56.15l-32.48,20.4c-14.77-12.19-44.3-15.48-47.88-15.84-2.31-.24-4.51,1.02-5.5,3.12-.99,2.1-.55,4.59,1.1,6.22,20.95,20.72,31.69,52.28,34.98,63.43l-26.56,14.04c-6.83,3.61-14.21,5.73-21.92,6.28l-11.3.82c-22.57,1.63-40.56,19.9-41.85,42.51-1.27,22.26-1.69,48.8.61,74.01-2.21,6.46-15.13,41.01-44.07,59.8-1.52.98-2.45,2.65-2.49,4.46-.05,1.8.8,3.51,2.27,4.57.89.64,60.69,42.63,155.97,42.62,47.76,0,104.46-10.56,167.08-42.17,1.85-.93,3.01-2.83,3.01-4.9,0-2.07-1.18-3.96-3.02-4.88ZM246.74,131.76c10.97,2.42,23.89,6.61,29.46,13,1.76,2.04,4.76,2.48,7.04,1.04l27.71-17.4v23.21c0,2.14,1.25,4.07,3.19,4.97,1.95.9,4.24.57,5.85-.83.16-.14,16.38-13.85,34.52-10.19,10.17,2.05,19.29,9.16,27.2,21.18-22.49-3.07-54.66.9-68.58,31.08-8.64,5.07-16.52,6.77-23.4,4.97-8.41-2.2-13.25-9.06-14.44-10.94-1.39-5.41-9.69-35.32-28.55-60.09Zm-115.3,261.19c16.54-12.9,27.46-29.79,34.02-42.7,2.47,14.64,6.16,28.19,11.5,39.37,1.3,2.73,4.56,3.88,7.3,2.58,2.73-1.3,3.88-4.57,2.58-7.3-16.44-34.42-15.69-95.88-13.78-129.46.98-17.13,14.6-30.97,31.71-32.21l11.3-.82c9.23-.67,18.06-3.2,26.24-7.52l26.18-13.84c3.32,4.1,9.34,9.87,18.32,12.27,2.79.75,5.64,1.12,8.56,1.12,7,0,14.37-2.26,22.01-6.51l42.74,22.53c10.6,5.59,17.39,16.02,18.17,27.9,2.61,39.7,12.56,107.25,49.44,134.33-153.73,73.32-268.26,16.8-296.27.26Z"/><polygon class="cls-1" points="328.14 209.02 375.96 235.32 387.12 289.51 398.27 340.52 415.01 377.98 437.33 393.12 411.03 405.08 318.58 432.97 212.58 429.78 139.25 409.86 125.7 397.9 165.45 350.25 170.34 266.4 176.71 230.54 204.92 219.84 242.29 214.9 267.57 196.27 256.41 152.43 234.89 126.13 249.24 126.93 276.08 141.5 312.2 122.94 319.99 155.75 340.89 141.27 369.58 148.45 389.51 170.76 347.27 171.56 329.73 184.31 324.53 199.34 328.14 209.02"/><path class="cls-3" d="m160.61,327.78s9.91,30.75,28.91,38.58"/><path class="cls-4" d="m252.77,181.07s6.13,17.31,83.43,15.82"/></svg>